<svg xmlns="http://www.w3.org/2000/svg" version="1.1" xmlns:xlink="http://www.w3.org/1999/xlink" xmlns:svgjs="http://svgjs.dev/svgjs" width="1440" height="560" preserveAspectRatio="none" viewBox="0 0 1440 560"><g mask="url(&quot;#SvgjsMask1420&quot;)" fill="none"><rect width="1440" height="560" x="0" y="0" fill="url(&quot;#SvgjsLinearGradient1421&quot;)"></rect><path d="M1241.17 160.42L1244.73 160.42L1244.73 163.98L1241.17 163.98z" fill="#d3b714"></path><path d="M93.68 371.46a37.78 37.78 0 1 0 65-38.52z" fill="#d3b714"></path><path d="M624.88 449.06L652.62 449.06L652.62 476.8L624.88 476.8z" fill="#e73635"></path><path d="M247.37 318.03 a8.42 8.42 0 1 0 16.84 0 a8.42 8.42 0 1 0 -16.84 0z" stroke="#037b0b"></path><path d="M421.25 521.11a41.28 41.28 0 1 0 82.24-7.28z" fill="#037b0b"></path><path d="M350.93 102.86L371.94 102.86L371.94 123.87L350.93 123.87z" stroke="#d3b714"></path><path d="M173.58 204.99L227.94 204.99L227.94 206.95L173.58 206.95z" fill="#037b0b"></path><path d="M38.03 554.83 a18.02 18.02 0 1 0 36.04 0 a18.02 18.02 0 1 0 -36.04 0z" stroke="#e73635"></path><path d="M590.35 137.58a32.98 32.98 0 1 0-41.96-50.89z" fill="#e73635"></path><path d="M576.37 129.13a13.65 13.65 0 1 0-24.54 11.96z" stroke="#d3b714"></path><path d="M183.08 21.31 a37.41 37.41 0 1 0 74.82 0 a37.41 37.41 0 1 0 -74.82 0z" fill="#037b0b"></path><path d="M106.95 194.28L147.05 194.28L147.05 222.33L106.95 222.33z" fill="#d3b714"></path><path d="M569.81 366.64a15.64 15.64 0 1 0 11.85 28.95z" fill="#037b0b"></path><path d="M1393.44 496.33 a33.68 33.68 0 1 0 67.36 0 a33.68 33.68 0 1 0 -67.36 0z" fill="#d3b714"></path><path d="M1151.47 69.63 a26.41 26.41 0 1 0 52.82 0 a26.41 26.41 0 1 0 -52.82 0z" fill="#d3b714"></path><path d="M127.43 278.11 a0.34 0.34 0 1 0 0.68 0 a0.34 0.34 0 1 0 -0.68 0z" fill="#d3b714"></path><path d="M1209.74 520.29a52.19 52.19 0 1 0-18.74-102.68z" fill="#e73635"></path><path d="M1244.63 478.83L1293.62 478.83L1293.62 527.82L1244.63 527.82z" stroke="#037b0b"></path><path d="M459.07 187.07L461.6 187.07L461.6 204.4L459.07 204.4z" fill="#d3b714"></path><path d="M210.82 250.07 a18.43 18.43 0 1 0 36.86 0 a18.43 18.43 0 1 0 -36.86 0z" fill="#037b0b"></path><path d="M204.91 212.62L205.96 212.62L205.96 239.61L204.91 239.61z" stroke="#037b0b"></path><path d="M239.1 102.88L291.51 102.88L291.51 155.29L239.1 155.29z" stroke="#d3b714"></path><path d="M150.75 12.58 a45.7 45.7 0 1 0 91.4 0 a45.7 45.7 0 1 0 -91.4 0z" stroke="#e73635"></path><path d="M1236.17 504.83L1258.23 504.83L1258.23 526.89L1236.17 526.89z" stroke="#d3b714"></path><path d="M1052.02 10.49a6.13 6.13 0 1 0 11.69-3.7z" stroke="#037b0b"></path><path d="M849.9 473.09 a38.91 38.91 0 1 0 77.82 0 a38.91 38.91 0 1 0 -77.82 0z" fill="#d3b714"></path><path d="M282.72 42.68a7.32 7.32 0 1 0 0.91 14.61z" stroke="#d3b714"></path><path d="M915.6 346.83a21.75 21.75 0 1 0 0.78-43.5z" stroke="#e73635"></path><path d="M1012.02 455.19a41.22 41.22 0 1 0-51.14-64.67z" stroke="#e73635"></path><path d="M945.13 238.99 a43.85 43.85 0 1 0 87.7 0 a43.85 43.85 0 1 0 -87.7 0z" stroke="#d3b714"></path><path d="M1024.76 324.5 a47.99 47.99 0 1 0 95.98 0 a47.99 47.99 0 1 0 -95.98 0z" stroke="#d3b714"></path><path d="M160.67 190.5L198.82 190.5L198.82 244.92L160.67 244.92z" fill="#d3b714"></path><path d="M1407.46 226.22a9.64 9.64 0 1 0-17.25 8.61z" stroke="#d3b714"></path></g><defs><mask id="SvgjsMask1420"><rect width="1440" height="560" fill="#ffffff"></rect></mask><linearGradient x1="0%" y1="50%" x2="100%" y2="50%" gradientUnits="userSpaceOnUse" id="SvgjsLinearGradient1421"><stop stop-color="#0e2a47" offset="0"></stop><stop stop-color="rgba(18, 0, 22, 1)" offset="1"></stop></linearGradient></defs></svg>